<svg width="358" height="51" viewBox="0 0 358 51" fill="none" xmlns="http://www.w3.org/2000/svg">
<rect y="0.337158" width="358" height="50.152" rx="2" fill="black"/>
<path d="M167.537 22.1818H169.071C169.001 20.2067 167.179 18.7301 164.648 18.7301C162.142 18.7301 160.174 20.1875 160.174 22.3864C160.174 24.1506 161.452 25.1989 163.498 25.7869L165.108 26.2472C166.489 26.6307 167.716 27.1165 167.716 28.4205C167.716 29.8523 166.336 30.7983 164.52 30.7983C162.961 30.7983 161.58 30.108 161.452 28.625H159.816C159.969 30.7727 161.708 32.2301 164.52 32.2301C167.537 32.2301 169.25 30.5682 169.25 28.446C169.25 25.9915 166.924 25.1989 165.569 24.8409L164.239 24.483C163.267 24.2273 161.708 23.7159 161.708 22.3097C161.708 21.0568 162.858 20.1364 164.597 20.1364C166.182 20.1364 167.384 20.8906 167.537 22.1818ZM174.541 32.2301C176.254 32.2301 177.149 31.3097 177.456 30.6705H177.533V32H179.041V25.5312C179.041 22.4119 176.664 22.054 175.411 22.054C173.928 22.054 172.24 22.5653 171.473 24.3551L172.905 24.8665C173.237 24.1506 174.024 23.3835 175.462 23.3835C176.849 23.3835 177.533 24.1186 177.533 25.3778V25.429C177.533 26.1577 176.791 26.0938 175.002 26.3239C173.18 26.5604 171.192 26.9631 171.192 29.2131C171.192 31.1307 172.675 32.2301 174.541 32.2301ZM174.771 30.875C173.57 30.875 172.7 30.3381 172.7 29.2898C172.7 28.1392 173.749 27.7812 174.925 27.6278C175.564 27.5511 177.277 27.3722 177.533 27.0653V28.446C177.533 29.6733 176.561 30.875 174.771 30.875ZM189.472 22.1818H187.835L185.125 30.0057H185.023L182.312 22.1818H180.676L184.307 32H185.841L189.472 22.1818ZM195.228 32.2045C197.222 32.2045 198.679 31.2074 199.14 29.7244L197.682 29.3153C197.299 30.3381 196.41 30.8494 195.228 30.8494C193.457 30.8494 192.236 29.7053 192.166 27.6023H199.293V26.9631C199.293 23.3068 197.12 22.054 195.074 22.054C192.415 22.054 190.651 24.1506 190.651 27.1676C190.651 30.1847 192.39 32.2045 195.228 32.2045ZM192.166 26.2983C192.268 24.7706 193.348 23.4091 195.074 23.4091C196.711 23.4091 197.759 24.6364 197.759 26.2983H192.166Z" fill="white"/>
</svg>
