<svg width="30" height="15" viewBox="0 0 30 15" fill="none" xmlns="http://www.w3.org/2000/svg">
<path d="M0.228782 0.909091L4.9589 8.60511V14H6.54412V8.60511L11.2742 0.909091H9.4589L5.82821 7.01989H5.6748L2.04412 0.909091H0.228782ZM15.8477 14.2045C17.8421 14.2045 19.2994 13.2074 19.7597 11.7244L18.3023 11.3153C17.9188 12.3381 17.0303 12.8494 15.8477 12.8494C14.0771 12.8494 12.8563 11.7053 12.786 9.60227H19.9131V8.96307C19.9131 5.30682 17.7398 4.05398 15.6943 4.05398C13.0352 4.05398 11.271 6.15057 11.271 9.16761C11.271 12.1847 13.0097 14.2045 15.8477 14.2045ZM12.786 8.2983C12.8882 6.7706 13.9685 5.40909 15.6943 5.40909C17.3307 5.40909 18.379 6.63636 18.379 8.2983H12.786ZM29.1624 6.38068C28.6894 4.98722 27.6283 4.05398 25.6851 4.05398C23.6141 4.05398 22.08 5.23011 22.08 6.89205C22.08 8.24716 22.8854 9.15483 24.6879 9.5767L26.3243 9.96023C27.3151 10.1903 27.7817 10.6634 27.7817 11.3409C27.7817 12.1847 26.8868 12.875 25.4806 12.875C24.2469 12.875 23.4735 12.3445 23.205 11.2898L21.7732 11.6477C22.1247 13.3161 23.499 14.2045 25.5061 14.2045C27.7881 14.2045 29.3414 12.9581 29.3414 11.2642C29.3414 9.89631 28.4848 9.03338 26.7334 8.60511L25.276 8.24716C24.1127 7.95952 23.5885 7.5696 23.5885 6.81534C23.5885 5.97159 24.4834 5.35795 25.6851 5.35795C27.0019 5.35795 27.5452 6.08665 27.8073 6.7642L29.1624 6.38068Z" fill="white"/>
</svg>
